<svg xmlns="http://www.w3.org/2000/svg" width="32.002" height="32.002" viewBox="0 0 32.002 32.002"><defs><style>.a{fill:#7fb0d6;}.b{opacity:0.67;}.c{fill:#6493d8;}.d,.f{fill:#6a80a0;}.d{opacity:0.878;}.e{fill:#a1b8d8;}</style></defs><g transform="translate(1.993 8.911)"><rect class="a" width="4.002" height="20.883"/><rect class="a" width="4.002" height="20.883" transform="translate(8.019)"/></g><g class="b" transform="translate(18.032 8.911)"><rect class="c" width="4.002" height="20.883"/><rect class="c" width="4.002" height="20.883" transform="translate(8.019)"/></g><path class="c" d="M253.236,88.487l-17.252-1.251,1.251,5.238h16Z" transform="translate(-221.234 -81.783)"/><g transform="translate(0)"><path class="d" d="M0,88.487v3.987H16V87.236Z" transform="translate(0 -81.783)"/><path class="e" d="M253.236,6.7l-16-6.7-1.251,3.6,1.251,3.1Z" transform="translate(-221.234)"/></g><path class="f" d="M16,0,0,6.7H16Z" transform="translate(0)"/><path class="c" d="M253.236,452.2v-3.987h-16l-1.251,1.993,1.251,1.993Z" transform="translate(-221.234 -420.2)"/><rect class="e" width="16.001" height="3.987" transform="translate(0 28.015)"/></svg>