<svg xmlns="http://www.w3.org/2000/svg" width="25.125" height="34.261" viewBox="0 0 25.125 34.261"><defs><style>.a{fill:#009688;}</style></defs><g transform="translate(1.142 1.142)"><path class="a" d="M209.142,144h2.284a1.142,1.142,0,0,1,1.142,1.142v2.284a1.142,1.142,0,0,1-1.142,1.142h-2.284A1.142,1.142,0,0,1,208,147.426v-2.284A1.142,1.142,0,0,1,209.142,144Z" transform="translate(-198.864 -134.864)"/><path class="a" d="M337.142,144h2.284a1.142,1.142,0,0,1,1.142,1.142v2.284a1.142,1.142,0,0,1-1.142,1.142h-2.284A1.142,1.142,0,0,1,336,147.426v-2.284A1.142,1.142,0,0,1,337.142,144Z" transform="translate(-317.727 -134.864)"/><path class="a" d="M81.142,144h2.284a1.142,1.142,0,0,1,1.142,1.142v2.284a1.142,1.142,0,0,1-1.142,1.142H81.142A1.142,1.142,0,0,1,80,147.426v-2.284A1.142,1.142,0,0,1,81.142,144Z" transform="translate(-80 -134.864)"/><path class="a" d="M209.142,16h2.284a1.142,1.142,0,0,1,1.142,1.142v2.284a1.142,1.142,0,0,1-1.142,1.142h-2.284A1.142,1.142,0,0,1,208,19.426V17.142A1.142,1.142,0,0,1,209.142,16Z" transform="translate(-198.864 -16)"/><path class="a" d="M337.142,16h2.284a1.142,1.142,0,0,1,1.142,1.142v2.284a1.142,1.142,0,0,1-1.142,1.142h-2.284A1.142,1.142,0,0,1,336,19.426V17.142A1.142,1.142,0,0,1,337.142,16Z" transform="translate(-317.727 -16)"/><path class="a" d="M81.142,16h2.284a1.142,1.142,0,0,1,1.142,1.142v2.284a1.142,1.142,0,0,1-1.142,1.142H81.142A1.142,1.142,0,0,1,80,19.426V17.142A1.142,1.142,0,0,1,81.142,16Z" transform="translate(-80 -16)"/><path class="a" d="M209.142,272h2.284a1.142,1.142,0,0,1,1.142,1.142v2.284a1.142,1.142,0,0,1-1.142,1.142h-2.284A1.142,1.142,0,0,1,208,275.426v-2.284A1.142,1.142,0,0,1,209.142,272Z" transform="translate(-198.864 -253.727)"/><path class="a" d="M209.142,400h2.284a1.142,1.142,0,0,1,1.142,1.142v2.284a1.142,1.142,0,0,1-1.142,1.142h-2.284A1.142,1.142,0,0,1,208,403.426v-2.284A1.142,1.142,0,0,1,209.142,400Z" transform="translate(-198.864 -372.591)"/><path class="a" d="M337.142,272h2.284a1.142,1.142,0,0,1,1.142,1.142v2.284a1.142,1.142,0,0,1-1.142,1.142h-2.284A1.142,1.142,0,0,1,336,275.426v-2.284A1.142,1.142,0,0,1,337.142,272Z" transform="translate(-317.727 -253.727)"/><path class="a" d="M81.142,272h2.284a1.142,1.142,0,0,1,1.142,1.142v2.284a1.142,1.142,0,0,1-1.142,1.142H81.142A1.142,1.142,0,0,1,80,275.426v-2.284A1.142,1.142,0,0,1,81.142,272Z" transform="translate(-80 -253.727)"/></g><path d="M197.71,6.852h-4.568A1.142,1.142,0,0,1,192,5.71V1.142A1.142,1.142,0,0,1,193.142,0h4.568a1.142,1.142,0,0,1,1.142,1.142V5.71A1.142,1.142,0,0,1,197.71,6.852Zm-3.426-2.284h2.284V2.284h-2.284Z" transform="translate(-182.864)"/><path d="M325.71,6.852h-4.568A1.142,1.142,0,0,1,320,5.71V1.142A1.142,1.142,0,0,1,321.142,0h4.568a1.142,1.142,0,0,1,1.142,1.142V5.71A1.142,1.142,0,0,1,325.71,6.852Zm-3.426-2.284h2.284V2.284h-2.284Z" transform="translate(-301.727)"/><path d="M69.71,6.852H65.142A1.142,1.142,0,0,1,64,5.71V1.142A1.142,1.142,0,0,1,65.142,0H69.71a1.142,1.142,0,0,1,1.142,1.142V5.71A1.142,1.142,0,0,1,69.71,6.852ZM66.284,4.568h2.284V2.284H66.284Z" transform="translate(-64)"/><path d="M197.71,134.852h-4.568A1.142,1.142,0,0,1,192,133.71v-4.568A1.142,1.142,0,0,1,193.142,128h4.568a1.142,1.142,0,0,1,1.142,1.142v4.568A1.142,1.142,0,0,1,197.71,134.852Zm-3.426-2.284h2.284v-2.284h-2.284Z" transform="translate(-182.864 -118.864)"/><path d="M325.71,134.852h-4.568A1.142,1.142,0,0,1,320,133.71v-4.568A1.142,1.142,0,0,1,321.142,128h4.568a1.142,1.142,0,0,1,1.142,1.142v4.568A1.142,1.142,0,0,1,325.71,134.852Zm-3.426-2.284h2.284v-2.284h-2.284Z" transform="translate(-301.727 -118.864)"/><path d="M69.71,134.852H65.142A1.142,1.142,0,0,1,64,133.71v-4.568A1.142,1.142,0,0,1,65.142,128H69.71a1.142,1.142,0,0,1,1.142,1.142v4.568A1.142,1.142,0,0,1,69.71,134.852Zm-3.426-2.284h2.284v-2.284H66.284Z" transform="translate(-64 -118.864)"/><path d="M197.71,262.852h-4.568A1.142,1.142,0,0,1,192,261.71v-4.568A1.142,1.142,0,0,1,193.142,256h4.568a1.142,1.142,0,0,1,1.142,1.142v4.568A1.142,1.142,0,0,1,197.71,262.852Zm-3.426-2.284h2.284v-2.284h-2.284Z" transform="translate(-182.864 -237.727)"/><path d="M197.71,390.852h-4.568A1.142,1.142,0,0,1,192,389.71v-4.568A1.142,1.142,0,0,1,193.142,384h4.568a1.142,1.142,0,0,1,1.142,1.142v4.568A1.142,1.142,0,0,1,197.71,390.852Zm-3.426-2.284h2.284v-2.284h-2.284Z" transform="translate(-182.864 -356.591)"/><path d="M325.71,262.852h-4.568A1.142,1.142,0,0,1,320,261.71v-4.568A1.142,1.142,0,0,1,321.142,256h4.568a1.142,1.142,0,0,1,1.142,1.142v4.568A1.142,1.142,0,0,1,325.71,262.852Zm-3.426-2.284h2.284v-2.284h-2.284Z" transform="translate(-301.727 -237.727)"/><path d="M69.71,262.852H65.142A1.142,1.142,0,0,1,64,261.71v-4.568A1.142,1.142,0,0,1,65.142,256H69.71a1.142,1.142,0,0,1,1.142,1.142v4.568A1.142,1.142,0,0,1,69.71,262.852Zm-3.426-2.284h2.284v-2.284H66.284Z" transform="translate(-64 -237.727)"/></svg>