<svg xmlns="http://www.w3.org/2000/svg" width="53.888" height="41.926" viewBox="0 0 53.888 41.926"><defs><style>.a{fill:#231f20;}.b{fill:#f79410;}.c{fill:#ff5f00;}.d{fill:#eb001b;}.e{fill:#f79e1b;}</style></defs><g transform="translate(0 0)"><g transform="translate(2.742 35.489)"><path class="a" d="M-135.635-15.906v.109h.1a.106.106,0,0,0,.055-.014.048.048,0,0,0,.02-.041.046.046,0,0,0-.02-.04.1.1,0,0,0-.055-.014Zm.1-.076a.186.186,0,0,1,.121.035.116.116,0,0,1,.042.1.109.109,0,0,1-.034.084.165.165,0,0,1-.1.04l.133.154h-.1l-.124-.153h-.04v.153h-.087v-.408Zm-.026.549a.322.322,0,0,0,.132-.028.348.348,0,0,0,.108-.073.34.34,0,0,0,.073-.109.349.349,0,0,0,.026-.133.349.349,0,0,0-.026-.133.352.352,0,0,0-.073-.109.347.347,0,0,0-.108-.073.339.339,0,0,0-.132-.025.354.354,0,0,0-.135.025.345.345,0,0,0-.11.073.332.332,0,0,0-.072.109.33.33,0,0,0-.026.133.33.33,0,0,0,.026.133.322.322,0,0,0,.072.109.345.345,0,0,0,.11.073.336.336,0,0,0,.135.028m0-.783a.44.44,0,0,1,.175.035.443.443,0,0,1,.142.094.431.431,0,0,1,.1.14.42.42,0,0,1,.035.171.42.42,0,0,1-.035.171.455.455,0,0,1-.1.14.481.481,0,0,1-.142.094.44.44,0,0,1-.175.035.447.447,0,0,1-.177-.035.46.46,0,0,1-.143-.094.455.455,0,0,1-.1-.14.42.42,0,0,1-.035-.171.42.42,0,0,1,.035-.171.431.431,0,0,1,.1-.14.426.426,0,0,1,.143-.094.447.447,0,0,1,.177-.035m-41.264-1.571a1.327,1.327,0,0,1,1.342-1.416,1.326,1.326,0,0,1,1.332,1.416,1.326,1.326,0,0,1-1.332,1.416,1.327,1.327,0,0,1-1.342-1.416m3.581,0V-20h-.962v.537a1.677,1.677,0,0,0-1.4-.648,2.217,2.217,0,0,0-2.213,2.323,2.216,2.216,0,0,0,2.213,2.323,1.677,1.677,0,0,0,1.4-.648v.537h.962Zm32.5,0A1.327,1.327,0,0,1-139.4-19.2a1.326,1.326,0,0,1,1.332,1.416A1.326,1.326,0,0,1-139.4-16.37a1.327,1.327,0,0,1-1.342-1.416m3.582,0v-3.988h-.963v2.313a1.677,1.677,0,0,0-1.4-.648,2.217,2.217,0,0,0-2.212,2.323,2.216,2.216,0,0,0,2.212,2.323,1.677,1.677,0,0,0,1.4-.648v.537h.963Zm-24.142-1.462a1.1,1.1,0,0,1,1.119,1.073h-2.3a1.139,1.139,0,0,1,1.176-1.073m.019-.861a2.161,2.161,0,0,0-2.2,2.323,2.181,2.181,0,0,0,2.268,2.323,2.688,2.688,0,0,0,1.813-.62l-.471-.713a2.115,2.115,0,0,1-1.287.463,1.228,1.228,0,0,1-1.323-1.083h3.284c.01-.12.019-.24.019-.37a2.121,2.121,0,0,0-2.1-2.323m11.612,2.323a1.327,1.327,0,0,1,1.342-1.416A1.326,1.326,0,0,1-147-17.786a1.326,1.326,0,0,1-1.332,1.416,1.327,1.327,0,0,1-1.342-1.416m3.581,0V-20h-.962v.537a1.678,1.678,0,0,0-1.4-.648,2.217,2.217,0,0,0-2.212,2.323,2.216,2.216,0,0,0,2.212,2.323,1.678,1.678,0,0,0,1.4-.648v.537h.962Zm-9.012,0a2.234,2.234,0,0,0,2.36,2.323,2.316,2.316,0,0,0,1.591-.527l-.462-.777a1.944,1.944,0,0,1-1.158.4,1.321,1.321,0,0,1-1.332-1.416,1.321,1.321,0,0,1,1.332-1.416,1.944,1.944,0,0,1,1.158.4l.462-.777a2.316,2.316,0,0,0-1.591-.527,2.234,2.234,0,0,0-2.36,2.323m12.4-2.323a1.305,1.305,0,0,0-1.166.648V-20h-.953v4.423h.963v-2.479c0-.732.315-1.139.944-1.139a1.559,1.559,0,0,1,.6.111l.3-.907a2.048,2.048,0,0,0-.685-.121m-25.78.463a3.308,3.308,0,0,0-1.8-.463c-1.121,0-1.842.537-1.842,1.416,0,.721.537,1.166,1.526,1.3l.454.065c.527.074.776.213.776.463,0,.342-.352.537-1.008.537a2.355,2.355,0,0,1-1.471-.463l-.453.749a3.191,3.191,0,0,0,1.915.574c1.277,0,2.018-.6,2.018-1.444,0-.777-.583-1.184-1.545-1.323l-.453-.066c-.416-.055-.75-.138-.75-.434,0-.324.315-.518.842-.518a2.854,2.854,0,0,1,1.379.379Zm12.409-.463a1.3,1.3,0,0,0-1.165.648V-20h-.953v4.423h.962v-2.479c0-.732.315-1.139.944-1.139a1.559,1.559,0,0,1,.6.111l.3-.907a2.048,2.048,0,0,0-.685-.121m-8.207.111h-1.573V-21.34h-.972V-20h-.9v.879h.9V-17.1c0,1.026.4,1.637,1.536,1.637a2.257,2.257,0,0,0,1.2-.342l-.277-.824a1.78,1.78,0,0,1-.852.25c-.481,0-.638-.3-.638-.74v-2h1.573Zm-14.38,4.423v-2.776a1.647,1.647,0,0,0-1.74-1.758,1.712,1.712,0,0,0-1.555.787,1.624,1.624,0,0,0-1.462-.787,1.463,1.463,0,0,0-1.3.657V-20h-.963v4.423h.971v-2.452a1.035,1.035,0,0,1,1.083-1.176c.639,0,.962.416.962,1.166v2.461h.972v-2.452a1.043,1.043,0,0,1,1.082-1.176c.657,0,.971.416.971,1.166v2.461Z" transform="translate(185.679 21.774)"/></g><g transform="translate(51.976 26.333)"><path class="b" d="M-3.8-1.751V-2.4h-.168l-.195.444L-4.361-2.4H-4.53v.646h.12v-.487l.182.42H-4.1l.182-.422v.488Zm-1.069,0v-.536h.216V-2.4h-.551v.109h.216v.536Z" transform="translate(5.207 2.397)"/></g><path class="c" d="M3357.579,2173.766H3343v-26.194h14.575Z" transform="translate(-3323.349 -2144.008)"/><path class="d" d="M-55.8-45.15a16.631,16.631,0,0,1,6.362-13.1,16.586,16.586,0,0,0-10.295-3.562A16.657,16.657,0,0,0-76.392-45.15,16.657,16.657,0,0,0-59.735-28.491a16.586,16.586,0,0,0,10.295-3.562A16.631,16.631,0,0,1-55.8-45.15" transform="translate(76.392 61.809)"/><g transform="translate(26.935)"><path class="e" d="M-73.049-45.15A16.657,16.657,0,0,1-89.705-28.491,16.591,16.591,0,0,1-100-32.053a16.629,16.629,0,0,0,6.363-13.1A16.628,16.628,0,0,0-100-58.247a16.591,16.591,0,0,1,10.3-3.562A16.657,16.657,0,0,1-73.049-45.15" transform="translate(100.001 61.809)"/></g></g></svg>