<svg xmlns="http://www.w3.org/2000/svg" width="39.299" height="25.406" viewBox="0 0 39.299 25.406"><defs><style>.a{fill:#4768a2;}.b{fill:#4a4a93;}.c{fill:#ff641a;}.d{fill:#f4f1f1;}.e{fill:#daeaec;}.f{fill:#ffe470;}</style></defs><path class="a" d="M39.3,106.28V93.034a2.53,2.53,0,0,0-2.53-2.53H2.53A2.53,2.53,0,0,0,0,93.034V106.28H.438v4.78H0v2.319a2.53,2.53,0,0,0,2.53,2.53H36.77a2.53,2.53,0,0,0,2.53-2.53v-2.319H38.262v-4.78Z" transform="translate(0 -90.504)"/><path class="b" d="M275.665,106.28V93.034a2.53,2.53,0,0,0-2.53-2.53H256.016V115.91h17.119a2.53,2.53,0,0,0,2.53-2.53v-2.319h-.517v-4.78Z" transform="translate(-236.365 -90.504)"/><circle class="c" cx="3.434" cy="3.434" r="3.434" transform="translate(26.041 4.223)"/><path class="d" d="M0,296.03H39.3v4.78H0Z" transform="translate(0 -280.254)"/><path class="e" d="M256.016,296.03h19.649v4.781H256.016Z" transform="translate(-236.365 -280.254)"/><g transform="translate(4.635 4.167)"><path class="f" d="M69.644,147.093H61.537a1.151,1.151,0,1,1,0-2.3h8.107a1.151,1.151,0,0,1,0,2.3Z" transform="translate(-60.386 -144.79)"/><g transform="translate(0 4.677)"><path class="f" d="M69.644,208.03H61.537a1.151,1.151,0,0,1,0-2.3h8.107a1.151,1.151,0,0,1,0,2.3Z" transform="translate(-60.386 -205.727)"/></g></g></svg>