<svg xmlns="http://www.w3.org/2000/svg" width="42.161" height="42.209" viewBox="0 0 42.161 42.209"><defs><style>.a{fill:#406999;}.b{fill:#78c2a4;}.c{fill:#e19337;}</style></defs><path class="a" d="M243.656,111.063q-.444,0-.88.032a11.949,11.949,0,0,1,0,23.832q.436.032.88.032a11.948,11.948,0,1,0,0-23.9Z" transform="translate(-222.786 -101.907)"/><g transform="translate(11.426 11.661)"><path class="a" d="M148.336,160.332a9.444,9.444,0,1,1,9.444-9.444A9.455,9.455,0,0,1,148.336,160.332Zm0-17.6a8.159,8.159,0,1,0,8.159,8.159A8.168,8.168,0,0,0,148.336,142.729Z" transform="translate(-138.892 -141.444)"/></g><g transform="translate(30.125 6.932)"><g transform="translate(0 1.85)"><path class="b" d="M371.038,107.806h-4.681a.642.642,0,1,1,0-1.285h4.681a.642.642,0,1,1,0,1.285Z" transform="translate(-365.714 -106.521)"/></g><g transform="translate(3.943)"><path class="b" d="M414.18,89.066a.642.642,0,0,1-.5-1.043l1.157-1.449-1.157-1.449a.642.642,0,0,1,1-.8l1.478,1.85a.642.642,0,0,1,0,.8l-1.478,1.85a.641.641,0,0,1-.5.241Z" transform="translate(-413.538 -84.081)"/></g></g><path class="c" d="M311.921,7.741l3.462-3.5a.5.5,0,0,0,0-.706l-3.462-3.5a.126.126,0,0,0-.215.088V1.613a.424.424,0,0,1-.424.424H298.147a.245.245,0,0,0-.245.245V5.5a.245.245,0,0,0,.245.245h13.135a.424.424,0,0,1,.424.424V7.653A.126.126,0,0,0,311.921,7.741Z" transform="translate(-273.367 0)"/><path class="c" d="M468.939,3.537l-3.462-3.5a.126.126,0,0,0-.215.088V1.613a.422.422,0,0,1-.008.074l1.714,1.732a.668.668,0,0,1,0,.939l-1.714,1.732a.422.422,0,0,1,.008.074V7.653a.126.126,0,0,0,.215.088l3.462-3.5A.5.5,0,0,0,468.939,3.537Z" transform="translate(-426.924 0)"/><g transform="translate(5.33 30.293)"><g transform="translate(0.739 1.85)"><path class="b" d="M79.239,391.18H74.557a.642.642,0,1,1,0-1.285h4.681a.642.642,0,1,1,0,1.285Z" transform="translate(-73.915 -389.895)"/></g><path class="b" d="M67.071,372.441a.641.641,0,0,1-.5-.241l-1.478-1.85a.642.642,0,0,1,0-.8l1.478-1.85a.642.642,0,1,1,1,.8l-1.158,1.449,1.158,1.449a.642.642,0,0,1-.5,1.043Z" transform="translate(-64.95 -367.457)"/></g><path class="c" d="M3.9,417.676l-3.462,3.5a.5.5,0,0,0,0,.706l3.462,3.5a.126.126,0,0,0,.215-.088V423.8a.424.424,0,0,1,.424-.424H17.674a.245.245,0,0,0,.245-.245v-3.213a.245.245,0,0,0-.245-.245H4.54a.424.424,0,0,1-.424-.424v-1.487a.126.126,0,0,0-.215-.088Z" transform="translate(-0.294 -383.209)"/><path class="c" d="M.439,421.88l3.462,3.5a.126.126,0,0,0,.215-.088V423.8a.425.425,0,0,1,.008-.074L2.41,422a.668.668,0,0,1,0-.939l1.714-1.732a.423.423,0,0,1-.008-.074v-1.488a.126.126,0,0,0-.215-.088l-3.462,3.5a.5.5,0,0,0,0,.706Z" transform="translate(-0.294 -383.208)"/></svg>